#!OML:ASF H:\ManfredETheater\Project 1\Capture day 1\Session 1\subject.ASF
:FULLY-SPECIFIED
:DEGREES
150
root -3.88169 14.4124 -16.0006 -195.888 -27.7279 -176.676
lowerback 24.5996 0.0425833 -0.294516
upperback 2.47698 -0.356846 1.08663
thorax -10.9852 -0.317772 1.5425
lowerneck -17.8867 -1.10472 -3.44262
upperneck 10.3744 -1.04912 2.73201
head 6.08858 -0.42439 1.32308
rclavicle -1.57754e-014 2.09718e-014
rhumerus -51.7528 -3.93152 -69.8175
rradius 67.4186
rwrist -12.5816
rhand -29.2292 11.2514
rfingers 7.12502
rthumb -2.57308 -18.7129
lclavicle -1.57754e-014 2.09718e-014
lhumerus -48.2041 21.8499 61.9813
lradius 28.1269
lwrist -9.27922
lhand -28.8506 -0.917053
lfingers 7.12502
lthumb -2.2074 29.0513
rfemur -46.1267 0.282714 20.3285
rtibia 61.5484
rfoot -5.74079 -3.09506
rtoes -39.2991
lfemur -37.1101 -4.6539 -14.1748
ltibia 92.4274
lfoot -24.6573 -11.5271
ltoes -9.49939
151
root -3.95686 14.2757 -16.2826 -196.512 -28.3381 -176.703
lowerback 24.8345 0.0326925 -0.794433
upperback 2.61627 -0.516304 1.18157
thorax -10.9443 -0.376586 1.99335
lowerneck -17.8056 -1.1761 -3.5508
upperneck 10.871 -1.13136 2.76579
head 6.23809 -0.466341 1.34462
rclavicle 6.93696e-014 -3.16068e-014
rhumerus -49.5284 -4.61237 -71.6154
rradius 64.2056
rwrist -11.9168
rhand -29.0466 11.7396
rfingers 7.12502
rthumb -2.3967 -18.2267
lclavicle 6.93696e-014 -3.16068e-014
lhumerus -45.1154 20.4349 67.7272
lradius 30.4328
lwrist -5.68356
lhand -29.5543 -0.613454
lfingers 7.12502
lthumb -2.88705 29.3468
rfemur -46.511 0.377655 20.2679
rtibia 64.9443
rfoot -5.89219 -2.09564
rtoes -36.3007
lfemur -36.9578 -4.78039 -14.0156
ltibia 94.8541
lfoot -23.9168 -12.7789
ltoes -10.1122
152
root -4.02779 14.1578 -16.5629 -197.073 -29.1088 -176.612
lowerback 24.8843 -0.0228464 -1.29927
upperback 2.71811 -0.724697 1.30185
thorax -10.8406 -0.454973 2.48882
lowerneck -17.7601 -1.28155 -3.65682
upperneck 11.3437 -1.28039 2.92353
head 6.38937 -0.530617 1.39861
rclavicle 5.67499e-014 4.96962e-015
rhumerus -47.5422 -4.95991 -73.3798
rradius 61.4954
rwrist -10.8108
rhand -28.8629 12.198
rfingers 7.12502
rthumb -2.21931 -17.7702
lclavicle 5.67499e-014 4.96962e-015
lhumerus -42.2713 17.6702 73.6476
lradius 33.5183
lwrist -1.54227
lhand -30.0361 -0.497236
lfingers 7.12502
lthumb -3.35236 29.4562
rfemur -46.74 0.197734 20.3206
rtibia 68.074
rfoot -6.37195 -1.41673
rtoes -32.6879
lfemur -36.977 -5.09041 -13.7439
ltibia 97.0966
lfoot -22.7595 -14.1784
ltoes -10.5496
153
root -4.09676 14.0578 -16.8385 -197.606 -29.9594 -176.307
lowerback 24.7812 -0.128239 -1.64387
upperback 2.76756 -0.940337 1.4442
thorax -10.7112 -0.540261 2.91531
lowerneck -17.7407 -1.43503 -3.77263
upperneck 11.8006 -1.51554 3.21439
head 6.54491 -0.625644 1.48795
rclavicle 6.47758e-014 6.75868e-015
rhumerus -45.8671 -5.04431 -75.1046
rradius 59.4002
rwrist -9.68845
rhand -28.7591 12.5511
rfingers 7.12502
rthumb -2.11906 -17.4181
lclavicle 6.47758e-014 6.75868e-015
lhumerus -39.88 13.8782 79.2446
lradius 37.2523
lwrist 2.36726
lhand -30.1883 -0.553983
lfingers 7.12502
lthumb -3.49928 29.397
rfemur -46.8226 -0.191959 20.5774
rtibia 70.8511
rfoot -7.11937 -1.18233
rtoes -29.3173
lfemur -37.1824 -5.5052 -13.2383
ltibia 99.1418
lfoot -21.2383 -15.7521
ltoes -10.8194
